<svg width="233" height="90" viewBox="0 0 233 90" fill="none" xmlns="http://www.w3.org/2000/svg">
<path d="M9.06491 64.833H7.5498V77.0087H9.06491V64.833Z" fill="#002D6A"/>
<path d="M17.7989 77.0087V71.2214C17.7989 69.7523 17.1528 68.9732 15.9273 68.9732C14.4568 68.9732 13.4096 70.2865 13.4096 72.0672V77.0087H12.0059V68.016H13.2982V69.6855C14.234 68.2609 14.9469 67.7935 16.1947 67.7935C17.3533 67.7935 18.3559 68.4167 18.8238 69.4184C19.0244 69.8636 19.1135 70.5536 19.1135 71.8224V77.031H17.7989V77.0087Z" fill="#002D6A"/>
<path d="M25.3968 77.0086H23.9262L20.7178 67.9937H22.2552L24.7729 75.3169L27.2461 67.9937H28.4938L25.3968 77.0086Z" fill="#002D6A"/>
<path d="M37.3617 74.6045C36.7824 76.274 35.3787 77.2534 33.5517 77.2534C31.0785 77.2534 29.4297 75.3613 29.4297 72.5567C29.4297 69.7298 31.1453 67.771 33.6185 67.771C35.1782 67.771 36.4259 68.5723 37.0498 69.9524C37.4063 70.7315 37.5177 71.4437 37.5399 72.6457H30.9671C30.9671 73.7142 31.0562 74.1816 31.3236 74.7381C31.7246 75.5617 32.6604 76.0959 33.6185 76.0959C34.7771 76.0959 35.5124 75.5394 36.0471 74.3374L37.3617 74.6045ZM35.9803 71.5773C35.9357 69.8856 35.0445 68.8394 33.5962 68.8394C32.8164 68.8394 32.148 69.1733 31.6578 69.7743C31.2567 70.2863 31.1008 70.7315 31.0116 71.5773H35.9803Z" fill="#002D6A"/>
<path d="M39.6113 77.0088V68.0161H40.8368V70.1085C41.2824 69.2181 41.4384 68.951 41.7726 68.5281C42.1736 68.0607 42.8421 67.749 43.5328 67.749C43.6665 67.749 43.867 67.7713 44.0675 67.7935V69.1291C42.3742 68.9955 41.0819 70.3311 41.0373 72.2454V77.0088H39.6113Z" fill="#002D6A"/>
<path d="M45.7394 74.4045C45.8953 74.9164 46.029 75.1836 46.3187 75.4284C46.8534 75.8513 47.6778 76.0962 48.5468 76.0962C49.7945 76.0962 50.6412 75.5174 50.6412 74.6271C50.6412 73.8925 50.1064 73.4473 49.0815 73.247L47.1876 72.8909C45.6503 72.6015 44.759 71.6889 44.759 70.3979C44.759 68.8175 46.1182 67.749 48.168 67.749C50.0619 67.749 51.2873 68.5281 51.7107 70.0417L50.4407 70.3088C50.0173 69.3517 49.2821 68.9065 48.1457 68.9065C46.9871 68.9065 46.2073 69.4407 46.2073 70.2198C46.2073 70.9098 46.6529 71.3105 47.611 71.4885L49.3935 71.8002C51.2428 72.1341 52.134 73.0022 52.134 74.4713C52.134 76.1184 50.6635 77.2314 48.4354 77.2314C47.1654 77.2314 46.1404 76.8975 45.3606 76.2297C44.8927 75.8291 44.6476 75.4507 44.4248 74.6493L45.7394 74.4045Z" fill="#002D6A"/>
<path d="M55.5424 66.3687H54.0273V64.8105H55.5424V66.3687ZM55.4756 77.0085H54.0719V68.0159H55.4756V77.0085Z" fill="#002D6A"/>
<path d="M65.6583 72.5566C65.6583 75.3167 63.9427 77.2533 61.4918 77.2533C60.1772 77.2533 59.1968 76.7413 58.4615 75.6729C57.86 74.8048 57.5703 73.7363 57.5703 72.4898C57.5703 71.1543 57.9045 70.0858 58.5507 69.2845C59.3751 68.2606 60.4 67.7932 61.7146 67.7932C64.0541 67.7709 65.6583 69.7074 65.6583 72.5566ZM59.7093 69.9078C59.3082 70.4865 59.0854 71.3769 59.0854 72.4676C59.0854 74.7825 59.9989 76.0958 61.5809 76.0958C63.1851 76.0958 64.0986 74.7603 64.0986 72.4898C64.0986 71.3101 63.8981 70.5088 63.4525 69.8855C63.0069 69.2845 62.2716 68.9284 61.5363 68.9284C60.8679 68.9061 60.1103 69.3068 59.7093 69.9078Z" fill="#002D6A"/>
<path d="M73.546 77.0087V71.2214C73.546 69.7523 72.8775 68.9732 71.6744 68.9732C70.2038 68.9732 69.1566 70.2865 69.1566 72.0672V77.0087H67.7529V68.016H69.0452V69.6855C69.981 68.2609 70.694 67.7935 71.9417 67.7935C73.1003 67.7935 74.103 68.4167 74.5709 69.4184C74.7714 69.8636 74.8605 70.5536 74.8605 71.8224V77.031H73.546V77.0087Z" fill="#002D6A"/>
<path d="M84.8871 74.6045C84.3078 76.274 82.9041 77.2534 81.0771 77.2534C78.6039 77.2534 76.9551 75.3613 76.9551 72.5567C76.9551 69.7298 78.6707 67.771 81.1439 67.771C82.7036 67.771 83.9513 68.5723 84.5752 69.9524C84.9316 70.7315 85.0431 71.4437 85.0653 72.6457H78.4925C78.4925 73.7142 78.5816 74.1816 78.849 74.7381C79.25 75.5617 80.1858 76.0959 81.1439 76.0959C82.3025 76.0959 83.0378 75.5394 83.5725 74.3374L84.8871 74.6045ZM83.5057 71.5773C83.4611 69.8856 82.5699 68.8394 81.1216 68.8394C80.3418 68.8394 79.6734 69.1733 79.1832 69.7743C78.7821 70.2863 78.6261 70.7315 78.537 71.5773H83.5057Z" fill="#002D6A"/>
<path d="M87.249 74.4045C87.4049 74.9164 87.5386 75.1836 87.8283 75.4284C88.363 75.8513 89.1874 76.0962 90.0564 76.0962C91.3041 76.0962 92.1508 75.5174 92.1508 74.6271C92.1508 73.8925 91.616 73.4473 90.5911 73.247L88.6972 72.8909C87.1598 72.6015 86.2686 71.6889 86.2686 70.3979C86.2686 68.8175 87.6277 67.749 89.6776 67.749C91.5715 67.749 92.7746 68.5281 93.2203 70.0417L91.9503 70.3088C91.5269 69.3517 90.7916 68.9065 89.6553 68.9065C88.4967 68.9065 87.7169 69.4407 87.7169 70.2198C87.7169 70.9098 88.1625 71.3105 89.1206 71.4885L90.903 71.8002C92.7524 72.1341 93.6436 73.0022 93.6436 74.4713C93.6436 76.1184 92.1731 77.2314 89.9227 77.2314C88.6527 77.2314 87.6277 76.8975 86.8479 76.2297C86.38 75.8291 86.1349 75.4507 85.9121 74.6493L87.249 74.4045Z" fill="#002D6A"/>
<path d="M107.146 80.0583H105.742V75.3616C105.141 76.6304 104.272 77.2537 103.024 77.2537C100.885 77.2537 99.459 75.3839 99.459 72.5792C99.459 69.7078 100.952 67.749 103.18 67.749C104.405 67.749 105.051 68.1497 105.876 69.4852L106.433 67.8826H107.146V80.0583ZM105.742 71.8002C105.631 70.6872 105.475 70.1975 105.007 69.6856C104.561 69.2181 103.937 68.9288 103.336 68.9288C101.932 68.9288 100.996 70.3756 100.996 72.5347C100.996 74.6939 101.888 76.0517 103.314 76.0517C104.138 76.0517 104.829 75.5842 105.297 74.7829C105.586 74.2709 105.675 73.8925 105.742 73.0022V71.8002Z" fill="#002D6A"/>
<path d="M115.791 77.0088V75.2948C115.145 76.5636 114.186 77.2536 112.916 77.2536C111.067 77.2536 109.953 75.9403 109.953 73.759V68.0161H111.357V73.759C111.357 74.6271 111.513 75.139 111.847 75.5397C112.203 75.8958 112.649 76.0962 113.117 76.0962C114.498 76.0962 115.612 74.7384 115.612 73.0912V68.0161H117.016V77.0088H115.791Z" fill="#002D6A"/>
<path d="M127.087 74.6045C126.508 76.274 125.082 77.2534 123.255 77.2534C120.782 77.2534 119.133 75.3613 119.133 72.5567C119.133 69.7298 120.848 67.771 123.322 67.771C124.881 67.771 126.129 68.5723 126.753 69.9524C127.109 70.7315 127.221 71.4437 127.243 72.6457H120.67C120.67 73.7142 120.759 74.1816 121.027 74.7381C121.428 75.5617 122.364 76.0959 123.322 76.0959C124.48 76.0959 125.216 75.5394 125.75 74.3374L127.087 74.6045ZM125.706 71.5773C125.661 69.8856 124.77 68.8394 123.322 68.8394C122.542 68.8394 121.873 69.1733 121.383 69.7743C120.982 70.2863 120.826 70.7315 120.737 71.5773H125.706Z" fill="#002D6A"/>
<path d="M137.983 77.142C137.359 77.2311 137.069 77.2533 136.646 77.2533C134.953 77.2533 134.061 76.3184 134.061 74.5154V69.0842H132.479V67.9935H134.061L134.106 65.7231L135.421 65.6118V67.9935H137.448V69.0842H135.421V74.7158C135.421 75.6507 135.911 76.1181 136.891 76.1181C137.225 76.1181 137.47 76.0958 137.961 76.0068V77.142H137.983Z" fill="#002D6A"/>
<path d="M139.52 77.0088V68.0161H140.745V70.1085C141.191 69.2181 141.347 68.951 141.681 68.5281C142.082 68.0607 142.75 67.749 143.441 67.749C143.575 67.749 143.775 67.7713 143.976 67.7935V69.1291C142.282 68.9955 140.99 70.3311 140.946 72.2454V77.0088H139.52Z" fill="#002D6A"/>
<path d="M151.195 77.0085C151.106 76.5633 151.106 76.4075 151.039 75.3836C150.304 76.7191 149.412 77.2534 147.875 77.2534C146.003 77.2534 144.733 76.1404 144.733 74.5378C144.733 73.4693 145.357 72.5122 146.315 72.0447C147.14 71.6218 148.321 71.4215 149.836 71.4215C150.192 71.4215 150.46 71.4215 151.017 71.466C151.017 70.5534 150.972 70.3085 150.838 69.9079C150.571 69.2401 149.836 68.8617 148.677 68.8617C147.318 68.8617 146.494 69.4182 146.249 70.4866L144.956 70.264C145.09 69.5962 145.246 69.2401 145.625 68.8617C146.338 68.1271 147.474 67.771 148.967 67.771C150.326 67.771 151.239 68.1271 151.752 68.8394C152.198 69.4404 152.353 70.1527 152.353 71.466V75.2723C152.353 75.9401 152.398 76.4743 152.554 77.0308H151.195V77.0085ZM149.747 72.4677C147.496 72.4677 146.226 73.2245 146.226 74.56C146.226 75.5172 147.006 76.1627 148.12 76.1627C149.791 76.1627 151.039 74.8271 151.039 73.0687C151.039 72.9128 151.039 72.7125 151.017 72.4899C150.504 72.4677 150.036 72.4677 149.747 72.4677Z" fill="#002D6A"/>
<path d="M160.977 77.0087V71.2214C160.977 69.7523 160.33 68.9732 159.105 68.9732C157.634 68.9732 156.587 70.2865 156.587 72.0672V77.0087H155.184V68.016H156.476V69.6855C157.412 68.2609 158.125 67.7935 159.372 67.7935C160.531 67.7935 161.534 68.4167 162.002 69.4184C162.202 69.8636 162.291 70.5536 162.291 71.8224V77.031H160.977V77.0087Z" fill="#002D6A"/>
<path d="M165.188 74.4045C165.344 74.9164 165.477 75.1836 165.767 75.4284C166.302 75.8513 167.126 76.0962 167.995 76.0962C169.243 76.0962 170.089 75.5174 170.089 74.6271C170.089 73.8925 169.555 73.4473 168.53 73.247L166.636 72.8909C165.099 72.6015 164.207 71.6889 164.207 70.3979C164.207 68.8175 165.566 67.749 167.616 67.749C169.51 67.749 170.713 68.5281 171.159 70.0417L169.889 70.3088C169.466 69.3517 168.73 68.9065 167.594 68.9065C166.435 68.9065 165.656 69.4407 165.656 70.2198C165.656 70.9098 166.101 71.3105 167.059 71.4885L168.842 71.8002C170.691 72.1341 171.582 73.0022 171.582 74.4713C171.582 76.1184 170.112 77.2314 167.884 77.2314C166.591 77.2314 165.589 76.8975 164.809 76.2297C164.341 75.8291 164.096 75.4507 163.873 74.6493L165.188 74.4045Z" fill="#002D6A"/>
<path d="M177.286 69.1065H175.103V77.0085H173.788V69.1065H172.206V68.0158H173.788C173.833 66.9028 173.877 66.5467 174.078 66.0125C174.39 65.1444 175.303 64.5879 176.462 64.5879C176.863 64.5879 177.175 64.6324 177.821 64.7214V65.8567C177.442 65.7454 177.264 65.7231 176.952 65.7231C176.061 65.7231 175.459 66.0125 175.259 66.5912C175.103 66.9919 175.103 67.0586 175.103 68.038H177.286V69.1065Z" fill="#002D6A"/>
<path d="M186.421 72.5566C186.421 75.3167 184.705 77.2533 182.254 77.2533C180.94 77.2533 179.96 76.7413 179.224 75.6729C178.623 74.8048 178.333 73.7363 178.333 72.4898C178.333 71.1543 178.667 70.0858 179.313 69.2845C180.138 68.2606 181.163 67.7932 182.477 67.7932C184.817 67.7709 186.421 69.7074 186.421 72.5566ZM180.472 69.9078C180.071 70.4865 179.848 71.3769 179.848 72.4676C179.848 74.7825 180.762 76.0958 182.344 76.0958C183.926 76.0958 184.861 74.7603 184.861 72.4898C184.861 71.3101 184.661 70.5088 184.215 69.8855C183.77 69.2845 183.034 68.9284 182.299 68.9284C181.631 68.9061 180.873 69.3068 180.472 69.9078Z" fill="#002D6A"/>
<path d="M188.516 77.0088V68.0161H189.741V70.1085C190.187 69.2181 190.343 68.951 190.677 68.5281C191.078 68.0607 191.746 67.749 192.437 67.749C192.571 67.749 192.771 67.7713 192.972 67.7935V69.1291C191.278 68.9955 189.964 70.3311 189.942 72.2454V77.0088H188.516Z" fill="#002D6A"/>
<path d="M205.226 77.0088V71.4218C205.226 70.4424 205.159 70.1753 204.936 69.7746C204.647 69.2849 204.067 68.9733 203.466 68.9733C202.909 68.9733 202.329 69.2626 201.884 69.7523C201.371 70.3311 201.193 70.9321 201.193 71.9337V77.0088H199.834V71.0879C199.834 70.3311 199.7 69.9082 199.366 69.5075C199.032 69.1291 198.519 68.9065 198.051 68.9065C196.804 68.9065 195.846 70.1085 195.846 71.5998V76.9865H194.509V67.9939H195.712V69.7301C196.358 68.4391 197.294 67.749 198.497 67.749C199.745 67.749 200.658 68.5281 201.015 69.9081C201.616 68.5058 202.619 67.749 203.867 67.749C204.825 67.749 205.738 68.261 206.206 69.0846C206.496 69.6188 206.585 70.153 206.585 71.3995V76.9865H205.226V77.0088Z" fill="#002D6A"/>
<path d="M215.052 77.0085C214.963 76.5633 214.963 76.4075 214.896 75.3836C214.161 76.7191 213.27 77.2534 211.732 77.2534C209.861 77.2534 208.591 76.1404 208.591 74.5378C208.591 73.4693 209.215 72.5122 210.173 72.0447C210.997 71.6218 212.178 71.4215 213.693 71.4215C214.05 71.4215 214.317 71.4215 214.874 71.466C214.874 70.5534 214.829 70.3085 214.696 69.9079C214.428 69.2401 213.693 68.8617 212.535 68.8617C211.175 68.8617 210.351 69.4182 210.106 70.4866L208.814 70.264C208.947 69.5962 209.103 69.2401 209.482 68.8617C210.195 68.1271 211.331 67.771 212.824 67.771C214.183 67.771 215.097 68.1271 215.609 68.8394C216.055 69.4404 216.211 70.1527 216.211 71.466V75.2723C216.211 75.9401 216.255 76.4743 216.411 77.0308H215.052V77.0085ZM213.604 72.4677C211.354 72.4677 210.084 73.2245 210.084 74.56C210.084 75.5172 210.863 76.1627 211.978 76.1627C213.649 76.1627 214.896 74.8271 214.896 73.0687C214.896 72.9128 214.896 72.7125 214.874 72.4899C214.362 72.4677 213.894 72.4677 213.604 72.4677Z" fill="#002D6A"/>
<path d="M224.833 77.0087V71.2214C224.833 69.7523 224.165 68.9732 222.961 68.9732C221.491 68.9732 220.444 70.2865 220.444 72.0672V77.0087H219.04V68.016H220.332V69.6855C221.268 68.2609 221.981 67.7935 223.229 67.7935C224.387 67.7935 225.39 68.4167 225.858 69.4184C226.059 69.8636 226.148 70.5536 226.148 71.8224V77.031H224.833V77.0087Z" fill="#002D6A"/>
<path d="M47.3208 24.7443V9.89746H32.1475C39.6561 11.6559 45.5383 17.421 47.3208 24.7443Z" fill="#002D6A"/>
<path d="M22.7231 9.91992H7.5498V24.7667C9.31 17.4212 15.2144 11.6561 22.7231 9.91992Z" fill="#002D6A"/>
<path d="M47.3208 34.0039C45.5383 41.3271 39.6561 47.1145 32.1475 48.8507H47.3208V34.0039Z" fill="#002D6A"/>
<path d="M7.5498 33.9819V48.8287H22.7008C15.2144 47.0925 9.33228 41.3274 7.5498 33.9819Z" fill="#002D6A"/>
<path d="M81.5894 30.0864C84.1294 29.6857 85.7782 27.905 85.7782 25.924C85.7782 24.0987 84.33 22.6073 82.2355 22.1399C81.322 21.9396 80.2303 21.8728 78.1804 21.8728H75.1279V36.9422H78.1581V30.3758C78.1581 30.3758 82.0573 34.9389 82.4584 35.3395C82.9931 35.896 83.5056 36.2967 84.0403 36.5638C84.5973 36.8532 85.0207 36.9199 86.3798 36.9199H88.296C87.7835 36.5415 87.5161 36.2967 87.0705 35.8738C86.5135 35.3395 82.7257 31.4665 81.5894 30.0864ZM78.1581 29.1293V23.609C78.2473 23.5867 78.5146 23.5867 78.6706 23.5867C81.2329 23.5867 82.5252 24.4771 82.5252 26.2133C82.5252 27.8605 80.9655 29.1293 78.5369 29.1293C78.4701 29.1293 78.2918 29.1293 78.1581 29.1293ZM67.6861 34.8944C67.0622 35.1615 66.327 35.295 65.4357 35.295C62.1159 35.295 59.9546 32.9801 59.9546 29.5299C59.9546 25.9685 62.2496 23.5867 65.7254 23.5867C67.1291 23.5867 68.5328 23.9874 69.7805 24.7887V21.9618C68.4214 21.628 67.1736 21.4721 65.9482 21.4721C60.4894 21.4721 56.6348 24.8778 56.6348 29.6412C56.6348 34.2266 60.1774 37.3429 65.3689 37.3429C67.1514 37.3429 69.1121 36.9645 70.7163 36.2967V29.196H67.7307V34.8944H67.6861ZM128.847 21.3608C123.879 21.3608 120.403 24.5884 120.403 29.2628C120.403 34.0485 123.856 37.4096 128.758 37.4096C133.593 37.4096 137.024 34.093 137.024 29.4632C137.047 24.6997 133.66 21.3608 128.847 21.3608ZM128.825 35.2283C125.906 35.2283 123.789 32.6462 123.789 29.0847C123.789 25.8349 125.862 23.4755 128.758 23.4755C131.566 23.4755 133.615 26.0575 133.615 29.5967C133.638 32.7797 131.588 35.2283 128.825 35.2283ZM113.919 22.1399C113.006 21.9396 111.914 21.8728 109.864 21.8728H106.811V36.9422H109.842V30.7542C112.916 30.6429 114.409 29.9306 114.409 29.9306H114.387C116.281 29.196 117.439 27.5934 117.439 25.9462C117.439 24.121 116.013 22.6073 113.919 22.1399ZM110.22 29.1293C110.131 29.1293 109.953 29.1293 109.842 29.1293V23.609C109.931 23.5867 110.22 23.5867 110.354 23.5867C112.916 23.5867 114.186 24.4771 114.186 26.2133C114.209 27.8605 112.649 29.1293 110.22 29.1293ZM99.7038 21.8728L99.7261 30.5093C99.7261 33.0469 98.9017 34.7163 96.5622 34.7385C94.2227 34.7385 93.376 33.0691 93.376 30.5093L93.3537 21.8728H90.3012L90.3235 31.4219C90.3458 35.4286 92.663 37.0758 96.5845 37.0758C100.484 37.0758 102.823 35.4063 102.801 31.3997L102.779 21.8505L99.7038 21.8728ZM168.842 30.1087C171.382 29.708 173.03 27.9273 173.03 25.9685C173.03 24.1432 171.582 22.6519 169.488 22.1622C168.574 21.9618 167.482 21.8951 165.433 21.8951H162.38V36.9422H165.41V30.398C165.41 30.398 169.309 34.9611 169.688 35.3618C170.223 35.9183 170.735 36.3189 171.27 36.5861C171.827 36.8754 172.251 36.9422 173.61 36.9422H175.526C175.013 36.5638 174.746 36.3412 174.3 35.896C173.743 35.3395 169.978 31.4887 168.842 30.1087ZM165.41 29.1293V23.609C165.499 23.5867 165.767 23.5867 165.923 23.5867C168.485 23.5867 169.755 24.4771 169.755 26.2133C169.755 27.8605 168.195 29.1293 165.767 29.1293C165.7 29.1293 165.544 29.1293 165.41 29.1293ZM188.337 34.8944C187.713 35.1615 186.978 35.295 186.087 35.295C182.767 35.295 180.606 32.9801 180.606 29.5299C180.606 25.9685 182.879 23.609 186.354 23.609C187.758 23.609 189.162 24.0097 190.409 24.811V21.9841C189.028 21.6502 187.803 21.4944 186.555 21.4944C181.096 21.4944 177.241 24.8778 177.241 29.6635C177.241 34.2489 180.762 37.3429 185.953 37.3429C187.736 37.3429 189.696 36.9645 191.278 36.2967V29.196H188.315V34.8944H188.337ZM221.781 27.8382C219.753 26.9924 218.639 26.5917 218.617 25.3007C218.617 24.21 219.597 23.4755 221.068 23.4755C222.427 23.4755 223.898 23.8539 225.079 24.7887V22.1399C223.853 21.717 222.449 21.4721 221.179 21.4721C217.815 21.4721 215.565 23.1193 215.609 25.7014C215.609 26.8811 216.033 27.7937 216.924 28.595C217.525 29.107 218.216 29.4854 219.909 30.1977C222.249 31.1994 223.207 31.8004 223.207 33.0246C223.207 34.3824 221.982 35.295 220.311 35.295C218.974 35.295 217.347 34.8053 215.787 34.0263V36.7641C217.191 37.1425 218.639 37.3429 220.021 37.3429C223.831 37.3429 226.193 35.5844 226.148 32.6017C226.126 30.2867 224.834 29.1293 221.781 27.8382ZM203.845 21.3608C198.876 21.3608 195.423 24.5884 195.423 29.2406C195.423 34.0263 198.876 37.3874 203.756 37.3874C208.591 37.3874 212.022 34.0708 212.022 29.4409C212.022 24.722 208.635 21.3608 203.845 21.3608ZM203.823 35.2283C200.904 35.2283 198.787 32.6685 198.787 29.107C198.787 25.8349 200.859 23.4977 203.733 23.4977C206.541 23.4977 208.591 26.0798 208.591 29.5967C208.613 32.7797 206.563 35.2283 203.823 35.2283ZM151.128 21.4054L143.486 36.9422H146.427L148.053 33.3585H154.002L155.651 36.9422H158.971L151.306 21.4054H151.128ZM148.9 31.5332L151.017 26.8366L153.156 31.5332H148.9Z" fill="#002D6A"/>
</svg>
